<svg width="32" height="32" viewBox="0 0 32 32" fill="none" xmlns="http://www.w3.org/2000/svg">
<path d="M14.3093 24C13.8482 23.2029 12.9864 22.6667 11.9993 22.6667C11.5136 22.6667 11.0582 22.7965 10.666 23.0234M14.3093 24C14.5362 24.3922 14.666 24.8476 14.666 25.3333C14.666 26.8061 13.4721 28 11.9993 28C10.5266 28 9.33268 26.8061 9.33268 25.3333C9.33268 24.3463 9.86895 23.4845 10.666 23.0234M14.3093 24H21.6894M21.6894 24C21.4625 24.3922 21.3327 24.8476 21.3327 25.3333C21.3327 26.8061 22.5266 28 23.9993 28C25.4721 28 26.666 26.8061 26.666 25.3333C26.666 23.8606 25.4721 22.6667 23.9993 22.6667C23.0123 22.6667 22.1505 23.2029 21.6894 24ZM10.666 23.0234L9.74993 20M2.66602 5.33333H4.50175C5.76303 5.33333 6.85182 6.21699 7.11135 7.45128L7.50708 9.33333M9.74993 20L24.7669 17.6327C25.901 17.4539 26.7933 16.5694 26.9821 15.437L27.4818 12.4384C27.7527 10.813 26.4993 9.33333 24.8515 9.33333H7.50708M9.74993 20L7.50708 9.33333" stroke="#2C2D2E" stroke-width="2" stroke-linecap="round" stroke-linejoin="round"/>
</svg>
