<svg width="30" height="30" viewBox="0 0 30 30" fill="none" xmlns="http://www.w3.org/2000/svg">
<path d="M11.2037 6.21067C12.893 3.18134 13.737 1.66667 14.9997 1.66667C16.2623 1.66667 17.1063 3.18134 18.7957 6.21067L19.233 6.99467C19.713 7.85601 19.953 8.28667 20.3263 8.57067C20.6997 8.85467 21.1663 8.96001 22.0997 9.17067L22.9477 9.36267C26.2277 10.1053 27.8663 10.476 28.257 11.7307C28.6463 12.984 27.529 14.292 25.293 16.9067L24.7143 17.5827C24.0797 18.3253 23.761 18.6973 23.6183 19.156C23.4757 19.616 23.5237 20.112 23.6197 21.1027L23.7077 22.0053C24.045 25.4947 24.2143 27.2387 23.193 28.0133C22.1717 28.7893 20.6357 28.0813 17.5663 26.668L16.7703 26.3027C15.8983 25.9 15.4623 25.7 14.9997 25.7C14.537 25.7 14.101 25.9 13.2277 26.3027L12.4343 26.668C9.36366 28.0813 7.82766 28.788 6.80766 28.0147C5.785 27.2387 5.95433 25.4947 6.29166 22.0053L6.37966 21.104C6.47566 20.112 6.52366 19.616 6.37966 19.1573C6.23833 18.6973 5.91966 18.3253 5.285 17.584L4.70633 16.9067C2.47033 14.2933 1.353 12.9853 1.74233 11.7307C2.133 10.476 3.773 10.104 7.053 9.36267L7.901 9.17067C8.833 8.96001 9.29833 8.85467 9.673 8.57067C10.0463 8.28667 10.2863 7.85601 10.7663 6.99467L11.2037 6.21067Z" stroke="#2C2D2E" stroke-width="2"/>
</svg>
